<?xml version="1.0" encoding="UTF-8" standalone="no"?>
<!-- Created with Inkscape (http://www.inkscape.org/) -->

<svg
   xmlns:dc="http://purl.org/dc/elements/1.1/"
   xmlns:cc="http://creativecommons.org/ns#"
   xmlns:rdf="http://www.w3.org/1999/02/22-rdf-syntax-ns#"
   xmlns:svg="http://www.w3.org/2000/svg"
   xmlns="http://www.w3.org/2000/svg"
   xmlns:sodipodi="http://sodipodi.sourceforge.net/DTD/sodipodi-0.dtd"
   xmlns:inkscape="http://www.inkscape.org/namespaces/inkscape"
   width="256"
   height="256"
   id="svg2"
   version="1.1"
   inkscape:version="0.48.4 r9939"
   sodipodi:docname="新規ドキュメント 1">
  <sodipodi:namedview
     id="base"
     pagecolor="#ffffff"
     bordercolor="#666666"
     borderopacity="1.0"
     inkscape:pageopacity="0.0"
     inkscape:pageshadow="2"
     inkscape:zoom="1.8101934"
     inkscape:cx="247.03489"
     inkscape:cy="129.97572"
     inkscape:document-units="px"
     inkscape:current-layer="layer1"
     showgrid="false"
     inkscape:window-width="1920"
     inkscape:window-height="1023"
     inkscape:window-x="0"
     inkscape:window-y="376"
     inkscape:window-maximized="1" />
  <defs
     id="defs4">
    <marker
       inkscape:stockid="Arrow2Mend"
       orient="auto"
       refY="0.0"
       refX="0.0"
       id="Arrow2Mend"
       style="overflow:visible;">
      <path
         id="path3799"
         style="fill-rule:evenodd;stroke-width:0.62500000;stroke-linejoin:round;"
         d="M 8.7185878,4.0337352 L -2.2072895,0.016013256 L 8.7185884,-4.0017078 C 6.9730900,-1.6296469 6.9831476,1.6157441 8.7185878,4.0337352 z "
         transform="scale(0.6) rotate(180) translate(0,0)" />
    </marker>
    <marker
       inkscape:stockid="Arrow1Lend"
       orient="auto"
       refY="0.0"
       refX="0.0"
       id="Arrow1Lend"
       style="overflow:visible;">
      <path
         id="path3775"
         d="M 0.0,0.0 L 5.0,-5.0 L -12.5,0.0 L 5.0,5.0 L 0.0,0.0 z "
         style="fill-rule:evenodd;stroke:#000000;stroke-width:1.0pt;"
         transform="scale(0.8) rotate(180) translate(12.5,0)" />
    </marker>
    <marker
       inkscape:stockid="Arrow2Mend"
       orient="auto"
       refY="0"
       refX="0"
       id="Arrow2Mend-8"
       style="overflow:visible">
      <path
         inkscape:connector-curvature="0"
         id="path3799-3"
         style="fill-rule:evenodd;stroke-width:0.625;stroke-linejoin:round"
         d="M 8.7185878,4.0337352 -2.2072895,0.01601326 8.7185884,-4.0017078 c -1.7454984,2.3720609 -1.7354408,5.6174519 -6e-7,8.035443 z"
         transform="scale(-0.6,-0.6)" />
    </marker>
  </defs>
  <metadata
     id="metadata7">
    <rdf:RDF>
      <cc:Work
         rdf:about="">
        <dc:format>image/svg+xml</dc:format>
        <dc:type
           rdf:resource="http://purl.org/dc/dcmitype/StillImage" />
        <dc:title></dc:title>
      </cc:Work>
    </rdf:RDF>
  </metadata>
  <g
     inkscape:label="レイヤー 1"
     inkscape:groupmode="layer"
     id="layer1"
     transform="translate(0,-796.36217)">
    <path
       sodipodi:type="arc"
       style="fill:#729ece;fill-opacity:0.27619049000000001;stroke:#ad7fa8;stroke-width:5;stroke-linecap:butt;stroke-linejoin:miter;stroke-miterlimit:4;stroke-opacity:1;stroke-dasharray:none;stroke-dashoffset:0"
       id="path2985"
       sodipodi:cx="-142.31865"
       sodipodi:cy="150.32806"
       sodipodi:rx="112.81356"
       sodipodi:ry="112.81356"
       d="m -29.505089,150.32806 c 0,62.30521 -50.508351,112.81356 -112.813561,112.81356 -62.30521,0 -112.81356,-50.50835 -112.81356,-112.81356 0,-62.305205 50.50835,-112.813557 112.81356,-112.813557 62.30521,0 112.813561,50.508352 112.813561,112.813557 z"
       transform="translate(270.31865,774.03411)" />
    <g
       id="g4624">
      <g
         id="content"
         transform="matrix(0.365714285714,0,0,-0.365714285714,-64.0,192.0)"
         xml:space="preserve"
         stroke="black"
         stroke-linecap="butt"
         stroke-linejoin="miter"
         stroke-miterlimit="10.433"
         stroke-dasharray="none"
         stroke-dashoffset="0"
         stroke-opacity="1"
         fill="none"
         fill-rule="evenodd"
         fill-opacity="1"
         font-style="normal"
         font-variant="normal"
         font-weight="normal"
         font-stretch="normal"
         font-size-adjust="none"
         letter-spacing="normal"
         word-spacing="normal"
         text-anchor="start"><path
           d="M472.16,421.25 L472.19,421.38 L472.23,421.53 L472.27,421.69 L472.31,421.87 L472.37,422.06 L472.43,422.27 L472.49,422.49 L472.56,422.71 L472.64,422.94 L472.73,423.18 L472.83,423.43 L472.93,423.67 L473.04,423.92 L473.16,424.17 L473.29,424.42 L473.43,424.67 L473.58,424.91 L473.73,425.15 L473.9,425.38 L474.08,425.6 L474.26,425.82 L474.46,426.02 L474.67,426.21 L474.89,426.39 L475.12,426.55 L475.37,426.69 L475.49,426.76 L475.62,426.82 L475.76,426.87 L475.89,426.92 L476.03,426.97 L476.17,427.01 L476.32,427.04 L476.47,427.07 L476.62,427.09 L476.78,427.11 L476.94,427.12 L477.1,427.12 C477.35,427.12,478.54,427.12,479.58,426.48 C478.19,426.23,477.19,424.98,477.19,423.79 C477.19,423,477.74,422.04,479.08,422.04 C480.18,422.04,481.77,422.93,481.77,424.93 C481.77,427.53,478.83,428.21,477.14,428.21 C474.25,428.21,472.5,425.57,471.91,424.43 C470.66,427.71,467.97,428.21,466.54,428.21 C461.35,428.21,458.5,421.79,458.5,420.54 C458.5,420.04,459,420.04,459.11,420.04 C459.5,420.04,459.66,420.15,459.75,420.59 C461.44,425.87,464.74,427.12,466.43,427.12 C467.38,427.12,469.11,426.68,469.11,423.79 C469.11,422.25,468.27,418.9,466.43,411.93 C465.63,408.84,463.89,406.75,461.69,406.75 C461.39,406.75,460.25,406.75,459.21,407.4 C460.46,407.64,461.55,408.68,461.55,410.09 C461.55,411.43,460.46,411.82,459.71,411.82 C458.21,411.82,456.96,410.53,456.96,408.93 C456.96,406.65,459.46,405.65,461.64,405.65 C464.94,405.65,466.72,409.14,466.88,409.43 C467.47,407.59,469.27,405.65,472.25,405.65 C477.39,405.65,480.24,412.07,480.24,413.32 C480.24,413.82,479.79,413.82,479.63,413.82 C479.19,413.82,479.08,413.62,478.99,413.28 C477.35,407.95,473.96,406.75,472.36,406.75 C470.41,406.75,469.61,408.34,469.61,410.04 C469.61,411.14,469.91,412.23,470.47,414.42 Z "
           stroke-width="0"
           fill="black"
           id="path4627" /></g>    </g>
    <g
       id="g4661">
      <g
         text-anchor="start"
         word-spacing="normal"
         letter-spacing="normal"
         font-size-adjust="none"
         font-stretch="normal"
         font-weight="normal"
         font-variant="normal"
         font-style="normal"
         fill-opacity="1"
         fill-rule="evenodd"
         fill="none"
         stroke-opacity="1"
         stroke-dashoffset="0"
         stroke-dasharray="none"
         stroke-miterlimit="10.433"
         stroke-linejoin="miter"
         stroke-linecap="butt"
         stroke="black"
         xml:space="preserve"
         transform="matrix(0.365714285714,0,0,-0.365714285714,-64.0,192.0)"
         id="g4663"><path
           id="path4665"
           fill="black"
           stroke-width="0"
           d="M479.74,425.18 L479.75,425.22 L479.76,425.25 L479.77,425.31 L479.79,425.36 L479.8,425.42 L479.81,425.47 L479.83,425.51 L479.84,425.56 L479.85,425.6 L479.86,425.64 L479.86,425.68 L479.87,425.72 L479.88,425.76 L479.89,425.79 L479.89,425.82 L479.9,425.85 L479.9,425.88 L479.91,425.91 L479.91,425.94 L479.92,425.99 L479.92,426.05 L479.92,426.1 L479.92,426.15 L479.93,426.2 L479.93,426.23 L479.93,426.26 L479.93,426.29 L479.93,426.32 C479.93,427.23,479.24,427.67,478.49,427.67 C477.99,427.67,477.19,427.37,476.74,426.62 C476.64,426.37,476.24,424.84,476.05,423.93 C475.69,422.64,475.35,421.29,475.05,419.95 L472.8,410.98 C472.61,410.23,470.47,406.75,467.18,406.75 C464.64,406.75,464.08,408.93,464.08,410.78 C464.08,413.07,464.94,416.17,466.63,420.54 C467.43,422.59,467.63,423.14,467.63,424.14 C467.63,426.37,466.04,428.21,463.54,428.21 C458.8,428.21,456.96,421,456.96,420.54 C456.96,420.04,457.46,420.04,457.57,420.04 C458.07,420.04,458.11,420.15,458.36,420.95 C459.71,425.64,461.69,427.12,463.39,427.12 C463.79,427.12,464.64,427.12,464.64,425.53 C464.64,424.28,464.14,423,463.79,422.04 C461.8,416.76,460.89,413.92,460.89,411.57 C460.89,407.15,464.04,405.65,466.97,405.65 C468.93,405.65,470.61,406.5,472,407.89 C471.36,405.31,470.77,402.86,468.77,400.21 C467.47,398.53,465.58,397.07,463.29,397.07 C462.6,397.07,460.35,397.23,459.5,399.17 C460.3,399.17,460.96,399.17,461.64,399.78 C462.14,400.21,462.64,400.87,462.64,401.81 C462.64,403.36,461.3,403.56,460.8,403.56 C459.66,403.56,458,402.76,458,400.32 C458,397.82,460.21,395.98,463.29,395.98 C468.43,395.98,473.55,400.53,474.96,406.15 Z " /></g>    </g>
    <path
       style="fill:none;stroke:#ad7fa8;stroke-width:1px;stroke-linecap:butt;stroke-linejoin:miter;stroke-opacity:1"
       d="m 15.890625,924.36217 224.218745,0"
       id="path4710"
       inkscape:connector-curvature="0" />
    <path
       style="fill:none;stroke:#ad7fa8;stroke-width:1px;stroke-linecap:butt;stroke-linejoin:miter;stroke-opacity:1"
       d="m 128,812.2528 0,224.2187"
       id="path4710-5"
       inkscape:connector-curvature="0" />
    <path
       sodipodi:type="arc"
       style="fill:#e0cfde;fill-opacity:1;stroke:none"
       id="path4730"
       sodipodi:cx="120.21484"
       sodipodi:cy="16.351561"
       sodipodi:rx="8.7890625"
       sodipodi:ry="8.7890625"
       d="m 129.00391,16.351561 a 8.7890625,8.7890625 0 1 1 -17.57813,0 8.7890625,8.7890625 0 1 1 17.57813,0 z"
       transform="matrix(1.1444444,0,0,1.1444444,-9.5792047,792.8284)" />
    <path
       sodipodi:type="arc"
       style="fill:#e0cfde;fill-opacity:1;stroke:none"
       id="path4730-3"
       sodipodi:cx="120.21484"
       sodipodi:cy="16.351561"
       sodipodi:rx="8.7890625"
       sodipodi:ry="8.7890625"
       d="m 129.00391,16.351561 a 8.7890625,8.7890625 0 1 1 -17.57813,0 8.7890625,8.7890625 0 1 1 17.57813,0 z"
       transform="matrix(1.1444444,0,0,1.1444444,103.82704,905.64872)" />
    <text
       xml:space="preserve"
       style="font-size:25.31053925px;font-style:italic;font-variant:normal;font-weight:normal;font-stretch:normal;text-align:start;line-height:125%;letter-spacing:0px;word-spacing:0px;writing-mode:lr-tb;text-anchor:start;fill:#000000;fill-opacity:1;stroke:none;font-family:Serif;-inkscape-font-specification:Serif Italic"
       x="234.80905"
       y="931.06885"
       id="text4685"
       sodipodi:linespacing="125%"><tspan
         sodipodi:role="line"
         id="tspan4687"
         x="234.80905"
         y="931.06885">x</tspan></text>
    <text
       xml:space="preserve"
       style="font-size:19.90708733px;font-style:italic;font-variant:normal;font-weight:normal;font-stretch:normal;text-align:start;line-height:125%;letter-spacing:0px;word-spacing:0px;writing-mode:lr-tb;text-anchor:start;fill:#000000;fill-opacity:1;stroke:none;font-family:Serif;-inkscape-font-specification:Serif Italic"
       x="122.73671"
       y="814.77423"
       id="text4685-8"
       sodipodi:linespacing="125%"><tspan
         sodipodi:role="line"
         id="tspan4687-5"
         x="122.73671"
         y="814.77423">y</tspan></text>
  </g>
</svg>
